<svg width="104" height="104" viewBox="0 0 104 104" fill="none" xmlns="http://www.w3.org/2000/svg">
<circle cx="52" cy="52" r="52" fill="url(#paint0_linear_228_6)"/>
<g filter="url(#filter0_di_228_6)">
<mask id="path-2-outside-1_228_6" maskUnits="userSpaceOnUse" x="21" y="21" width="63" height="62" fill="black">
<rect fill="white" x="21" y="21" width="63" height="62"/>
<path d="M46.688 31.544H51.552C50.656 29.432 49.504 27.448 48.224 25.592L52.192 24.12C53.472 26.168 54.56 28.664 55.584 31.544H58.784C59.552 28.728 60.192 25.72 60.576 22.52L65.056 23.032C64.672 26.04 64.096 28.856 63.328 31.544H68.384C69.792 29.112 70.944 26.552 71.968 23.736L76.128 25.272C74.976 27.704 73.824 29.816 72.672 31.544H78.368V35.384H62.176C61.536 37.176 60.768 38.904 60 40.504H80.16V44.408H70.112C72.736 47.608 76.64 50.168 81.888 52.088L79.904 56.184C77.088 54.904 74.656 53.432 72.608 51.896V52.536C72.096 56.12 71.584 59.192 71.008 61.752H77.856C77.728 72.248 76.896 78.136 75.424 79.48C74.208 80.632 71.584 81.208 67.488 81.208H64.544L63.392 77.304C64.928 77.304 66.336 77.368 67.616 77.368C69.92 77.368 71.456 76.984 72.096 76.344C72.864 75.576 73.312 71.928 73.44 65.464H49.504C50.72 61.752 51.616 58.552 52.192 55.8L56.48 56.184C55.968 58.168 55.456 60.024 54.944 61.752H66.72C67.36 59.576 67.872 57.016 68.256 54.2H51.296V51.96C49.376 53.688 47.264 55.224 45.024 56.504L42.656 52.856C46.624 50.68 49.952 47.864 52.576 44.408H44.832V40.504H55.136C56.032 38.84 56.864 37.112 57.568 35.384H46.688V31.544ZM52.832 50.488H70.88C68.768 48.632 67.104 46.584 65.824 44.408H57.76C56.288 46.648 54.624 48.696 52.832 50.488ZM30.56 44.856V55.544H38.112V44.856H30.56ZM38.112 40.568V29.56H30.56V40.568H38.112ZM30.496 59.896C30.112 68.536 28.768 75.64 26.464 81.272L23.072 78.136C25.12 72.376 26.144 65.016 26.208 56.12V25.208H42.528V75.96C42.528 79.352 40.8 81.08 37.344 81.08H32.864L31.776 76.856C33.312 76.984 34.656 77.048 35.936 77.048C37.344 77.048 38.112 76.152 38.112 74.424V59.896H30.496ZM45.344 69.368H68.256V73.336H45.344V69.368Z"/>
</mask>
<path d="M46.688 31.544H51.552C50.656 29.432 49.504 27.448 48.224 25.592L52.192 24.12C53.472 26.168 54.56 28.664 55.584 31.544H58.784C59.552 28.728 60.192 25.72 60.576 22.52L65.056 23.032C64.672 26.04 64.096 28.856 63.328 31.544H68.384C69.792 29.112 70.944 26.552 71.968 23.736L76.128 25.272C74.976 27.704 73.824 29.816 72.672 31.544H78.368V35.384H62.176C61.536 37.176 60.768 38.904 60 40.504H80.16V44.408H70.112C72.736 47.608 76.64 50.168 81.888 52.088L79.904 56.184C77.088 54.904 74.656 53.432 72.608 51.896V52.536C72.096 56.12 71.584 59.192 71.008 61.752H77.856C77.728 72.248 76.896 78.136 75.424 79.48C74.208 80.632 71.584 81.208 67.488 81.208H64.544L63.392 77.304C64.928 77.304 66.336 77.368 67.616 77.368C69.92 77.368 71.456 76.984 72.096 76.344C72.864 75.576 73.312 71.928 73.44 65.464H49.504C50.72 61.752 51.616 58.552 52.192 55.8L56.48 56.184C55.968 58.168 55.456 60.024 54.944 61.752H66.72C67.36 59.576 67.872 57.016 68.256 54.2H51.296V51.96C49.376 53.688 47.264 55.224 45.024 56.504L42.656 52.856C46.624 50.68 49.952 47.864 52.576 44.408H44.832V40.504H55.136C56.032 38.84 56.864 37.112 57.568 35.384H46.688V31.544ZM52.832 50.488H70.88C68.768 48.632 67.104 46.584 65.824 44.408H57.76C56.288 46.648 54.624 48.696 52.832 50.488ZM30.56 44.856V55.544H38.112V44.856H30.56ZM38.112 40.568V29.56H30.56V40.568H38.112ZM30.496 59.896C30.112 68.536 28.768 75.64 26.464 81.272L23.072 78.136C25.12 72.376 26.144 65.016 26.208 56.12V25.208H42.528V75.96C42.528 79.352 40.8 81.08 37.344 81.08H32.864L31.776 76.856C33.312 76.984 34.656 77.048 35.936 77.048C37.344 77.048 38.112 76.152 38.112 74.424V59.896H30.496ZM45.344 69.368H68.256V73.336H45.344V69.368Z" fill="url(#paint1_linear_228_6)" shape-rendering="crispEdges"/>
<path d="M46.688 31.544V30.544H45.688V31.544H46.688ZM51.552 31.544V32.544H53.0625L52.4726 31.1534L51.552 31.544ZM48.224 25.592L47.8762 24.6544L46.671 25.1015L47.4008 26.1597L48.224 25.592ZM52.192 24.12L53.04 23.59L52.6081 22.899L51.8442 23.1824L52.192 24.12ZM55.584 31.544L54.6418 31.879L54.8782 32.544H55.584V31.544ZM58.784 31.544V32.544H59.5478L59.7488 31.8071L58.784 31.544ZM60.576 22.52L60.6895 21.5265L59.7016 21.4136L59.5831 22.4009L60.576 22.52ZM65.056 23.032L66.048 23.1586L66.1763 22.1535L65.1696 22.0385L65.056 23.032ZM63.328 31.544L62.3665 31.2693L62.0023 32.544H63.328V31.544ZM68.384 31.544V32.544H68.9606L69.2494 32.045L68.384 31.544ZM71.968 23.736L72.3144 22.7979L71.3716 22.4498L71.0282 23.3943L71.968 23.736ZM76.128 25.272L77.0317 25.7001L77.4996 24.7124L76.4744 24.3339L76.128 25.272ZM72.672 31.544L71.84 30.9893L70.8035 32.544H72.672V31.544ZM78.368 31.544H79.368V30.544H78.368V31.544ZM78.368 35.384V36.384H79.368V35.384H78.368ZM62.176 35.384V34.384H61.4713L61.2343 35.0477L62.176 35.384ZM60 40.504L59.0985 40.0713L58.4108 41.504H60V40.504ZM80.16 40.504H81.16V39.504H80.16V40.504ZM80.16 44.408V45.408H81.16V44.408H80.16ZM70.112 44.408V43.408H67.9988L69.3387 45.0421L70.112 44.408ZM81.888 52.088L82.788 52.5239L83.27 51.5288L82.2316 51.1489L81.888 52.088ZM79.904 56.184L79.4902 57.0944L80.3786 57.4982L80.804 56.6199L79.904 56.184ZM72.608 51.896L73.208 51.096L71.608 49.896V51.896H72.608ZM72.608 52.536L73.598 52.6774L73.608 52.6071V52.536H72.608ZM71.008 61.752L70.0324 61.5325L69.758 62.752H71.008V61.752ZM77.856 61.752L78.8559 61.7642L78.8683 60.752H77.856V61.752ZM75.424 79.48L74.7497 78.7415L74.7429 78.7477L74.7363 78.754L75.424 79.48ZM64.544 81.208L63.5849 81.491L63.7965 82.208H64.544V81.208ZM63.392 77.304V76.304H62.0543L62.4329 77.587L63.392 77.304ZM72.096 76.344L71.3889 75.6369L71.3889 75.6369L72.096 76.344ZM73.44 65.464L74.4398 65.4838L74.46 64.464H73.44V65.464ZM49.504 65.464L48.5537 65.1527L48.1241 66.464H49.504V65.464ZM52.192 55.8L52.2812 54.804L51.3954 54.7247L51.2132 55.5951L52.192 55.8ZM56.48 56.184L57.4483 56.4339L57.7427 55.2931L56.5692 55.188L56.48 56.184ZM54.944 61.752L53.9852 61.4679L53.6047 62.752H54.944V61.752ZM66.72 61.752V62.752H67.4682L67.6794 62.0342L66.72 61.752ZM68.256 54.2L69.2468 54.3351L69.4016 53.2H68.256V54.2ZM51.296 54.2H50.296V55.2H51.296V54.2ZM51.296 51.96H52.296V49.7146L50.627 51.2167L51.296 51.96ZM45.024 56.504L44.1852 57.0485L44.6997 57.8411L45.5201 57.3722L45.024 56.504ZM42.656 52.856L42.1752 51.9792L41.2308 52.4971L41.8172 53.4005L42.656 52.856ZM52.576 44.408L53.3724 45.0127L54.5908 43.408H52.576V44.408ZM44.832 44.408H43.832V45.408H44.832V44.408ZM44.832 40.504V39.504H43.832V40.504H44.832ZM55.136 40.504V41.504H55.7333L56.0165 40.9781L55.136 40.504ZM57.568 35.384L58.4941 35.7613L59.0552 34.384H57.568V35.384ZM46.688 35.384H45.688V36.384H46.688V35.384ZM52.832 50.488L52.1249 49.7809L50.4178 51.488H52.832V50.488ZM70.88 50.488V51.488H73.5328L71.5401 49.7368L70.88 50.488ZM65.824 44.408L66.6859 43.901L66.3959 43.408H65.824V44.408ZM57.76 44.408V43.408H57.2206L56.9243 43.8588L57.76 44.408ZM30.56 44.856V43.856H29.56V44.856H30.56ZM30.56 55.544H29.56V56.544H30.56V55.544ZM38.112 55.544V56.544H39.112V55.544H38.112ZM38.112 44.856H39.112V43.856H38.112V44.856ZM38.112 40.568V41.568H39.112V40.568H38.112ZM38.112 29.56H39.112V28.56H38.112V29.56ZM30.56 29.56V28.56H29.56V29.56H30.56ZM30.56 40.568H29.56V41.568H30.56V40.568ZM30.496 59.896V58.896H29.5395L29.497 59.8516L30.496 59.896ZM26.464 81.272L25.7851 82.0063L26.8437 82.9849L27.3895 81.6506L26.464 81.272ZM23.072 78.136L22.1298 77.801L21.9088 78.4225L22.3931 78.8703L23.072 78.136ZM26.208 56.12L27.208 56.1272V56.12H26.208ZM26.208 25.208V24.208H25.208V25.208H26.208ZM42.528 25.208H43.528V24.208H42.528V25.208ZM32.864 81.08L31.8956 81.3294L32.0889 82.08H32.864V81.08ZM31.776 76.856L31.859 75.8595L30.4566 75.7426L30.8076 77.1054L31.776 76.856ZM38.112 59.896H39.112V58.896H38.112V59.896ZM45.344 69.368V68.368H44.344V69.368H45.344ZM68.256 69.368H69.256V68.368H68.256V69.368ZM68.256 73.336V74.336H69.256V73.336H68.256ZM45.344 73.336H44.344V74.336H45.344V73.336ZM46.688 31.544V32.544H51.552V31.544V30.544H46.688V31.544ZM51.552 31.544L52.4726 31.1534C51.5446 28.9659 50.3564 26.9226 49.0472 25.0243L48.224 25.592L47.4008 26.1597C48.6516 27.9734 49.7675 29.8981 50.6314 31.9345L51.552 31.544ZM48.224 25.592L48.5718 26.5296L52.5398 25.0576L52.192 24.12L51.8442 23.1824L47.8762 24.6544L48.224 25.592ZM52.192 24.12L51.344 24.65C52.5694 26.6106 53.629 29.0306 54.6418 31.879L55.584 31.544L56.5262 31.209C55.491 28.2974 54.3746 25.7254 53.04 23.59L52.192 24.12ZM55.584 31.544V32.544H58.784V31.544V30.544H55.584V31.544ZM58.784 31.544L59.7488 31.8071C60.5272 28.9528 61.178 25.8961 61.5689 22.6391L60.576 22.52L59.5831 22.4009C59.206 25.5439 58.5768 28.5032 57.8192 31.2809L58.784 31.544ZM60.576 22.52L60.4625 23.5135L64.9425 24.0255L65.056 23.032L65.1696 22.0385L60.6895 21.5265L60.576 22.52ZM65.056 23.032L64.0641 22.9054C63.6861 25.866 63.1199 28.6323 62.3665 31.2693L63.328 31.544L64.2895 31.8187C65.0721 29.0797 65.6579 26.214 66.048 23.1586L65.056 23.032ZM63.328 31.544V32.544H68.384V31.544V30.544H63.328V31.544ZM68.384 31.544L69.2494 32.045C70.6921 29.5531 71.8677 26.938 72.9078 24.0777L71.968 23.736L71.0282 23.3943C70.0203 26.166 68.8919 28.6709 67.5186 31.043L68.384 31.544ZM71.968 23.736L71.6216 24.6741L75.7816 26.2101L76.128 25.272L76.4744 24.3339L72.3144 22.7979L71.968 23.736ZM76.128 25.272L75.2243 24.8439C74.0852 27.2486 72.9565 29.3145 71.84 30.9893L72.672 31.544L73.5041 32.0987C74.6916 30.3175 75.8668 28.1594 77.0317 25.7001L76.128 25.272ZM72.672 31.544V32.544H78.368V31.544V30.544H72.672V31.544ZM78.368 31.544H77.368V35.384H78.368H79.368V31.544H78.368ZM78.368 35.384V34.384H62.176V35.384V36.384H78.368V35.384ZM62.176 35.384L61.2343 35.0477C60.6103 36.7947 59.8582 38.4884 59.0985 40.0713L60 40.504L60.9015 40.9367C61.6778 39.3196 62.4617 37.5573 63.1177 35.7203L62.176 35.384ZM60 40.504V41.504H80.16V40.504V39.504H60V40.504ZM80.16 40.504H79.16V44.408H80.16H81.16V40.504H80.16ZM80.16 44.408V43.408H70.112V44.408V45.408H80.16V44.408ZM70.112 44.408L69.3387 45.0421C72.1077 48.4189 76.1825 51.0654 81.5444 53.0271L81.888 52.088L82.2316 51.1489C77.0975 49.2706 73.3643 46.7971 70.8853 43.7739L70.112 44.408ZM81.888 52.088L80.988 51.6521L79.004 55.7481L79.904 56.184L80.804 56.6199L82.788 52.5239L81.888 52.088ZM79.904 56.184L80.3178 55.2736C77.5671 54.0233 75.1976 52.5882 73.208 51.096L72.608 51.896L72.008 52.696C74.1144 54.2758 76.6089 55.7847 79.4902 57.0944L79.904 56.184ZM72.608 51.896H71.608V52.536H72.608H73.608V51.896H72.608ZM72.608 52.536L71.6181 52.3946C71.1073 55.9696 70.5997 59.011 70.0324 61.5325L71.008 61.752L71.9836 61.9715C72.5683 59.373 73.0847 56.2704 73.598 52.6774L72.608 52.536ZM71.008 61.752V62.752H77.856V61.752V60.752H71.008V61.752ZM77.856 61.752L76.8561 61.7398C76.7923 66.9715 76.5531 71.0196 76.1534 73.9111C75.9534 75.3584 75.717 76.4868 75.4538 77.3167C75.18 78.1801 74.9168 78.589 74.7497 78.7415L75.424 79.48L76.0983 80.2185C76.6672 79.699 77.06 78.8679 77.3602 77.9213C77.671 76.9412 77.9266 75.6896 78.1346 74.1849C78.551 71.1724 78.7917 67.0285 78.8559 61.7642L77.856 61.752ZM75.424 79.48L74.7363 78.754C74.3179 79.1504 73.562 79.5286 72.3228 79.799C71.0987 80.0661 69.4968 80.208 67.488 80.208V81.208V82.208C69.5752 82.208 71.3333 82.0619 72.7492 81.753C74.15 81.4474 75.3141 80.9616 76.1117 80.206L75.424 79.48ZM67.488 81.208V80.208H64.544V81.208V82.208H67.488V81.208ZM64.544 81.208L65.5031 80.925L64.3511 77.021L63.392 77.304L62.4329 77.587L63.5849 81.491L64.544 81.208ZM63.392 77.304V78.304C64.1473 78.304 64.8728 78.3197 65.5773 78.3357C66.2777 78.3517 66.9622 78.368 67.616 78.368V77.368V76.368C66.9898 76.368 66.3303 76.3523 65.6227 76.3363C64.9192 76.3203 64.1727 76.304 63.392 76.304V77.304ZM67.616 77.368V78.368C68.8171 78.368 69.8584 78.2685 70.7079 78.0697C71.5336 77.8764 72.2904 77.5638 72.8031 77.0511L72.096 76.344L71.3889 75.6369C71.2616 75.7642 70.9304 75.9636 70.2521 76.1223C69.5976 76.2755 68.7189 76.368 67.616 76.368V77.368ZM72.096 76.344L72.8031 77.0511C73.1926 76.6616 73.4185 76.0658 73.576 75.4949C73.7463 74.8775 73.8856 74.0937 74.0005 73.1624C74.2307 71.296 74.3756 68.7283 74.4398 65.4838L73.44 65.464L72.4402 65.4442C72.3764 68.6637 72.2333 71.152 72.0155 72.9176C71.9064 73.8023 71.7817 74.4785 71.648 74.9631C71.5015 75.4942 71.3834 75.6424 71.3889 75.6369L72.096 76.344ZM73.44 65.464V64.464H49.504V65.464V66.464H73.44V65.464ZM49.504 65.464L50.4543 65.7753C51.6771 62.0426 52.5847 58.805 53.1708 56.0049L52.192 55.8L51.2132 55.5951C50.6473 58.299 49.7629 61.4614 48.5537 65.1527L49.504 65.464ZM52.192 55.8L52.1028 56.796L56.3908 57.18L56.48 56.184L56.5692 55.188L52.2812 54.804L52.192 55.8ZM56.48 56.184L55.5117 55.9341C55.0023 57.9082 54.4934 59.7527 53.9852 61.4679L54.944 61.752L55.9028 62.0361C56.4186 60.2953 56.9337 58.4278 57.4483 56.4339L56.48 56.184ZM54.944 61.752V62.752H66.72V61.752V60.752H54.944V61.752ZM66.72 61.752L67.6794 62.0342C68.3374 59.797 68.8582 57.1853 69.2468 54.3351L68.256 54.2L67.2652 54.0649C66.8858 56.8467 66.3826 59.355 65.7606 61.4698L66.72 61.752ZM68.256 54.2V53.2H51.296V54.2V55.2H68.256V54.2ZM51.296 54.2H52.296V51.96H51.296H50.296V54.2H51.296ZM51.296 51.96L50.627 51.2167C48.7586 52.8983 46.7043 54.3921 44.5279 55.6358L45.024 56.504L45.5201 57.3722C47.8237 56.0559 49.9934 54.4777 51.965 52.7033L51.296 51.96ZM45.024 56.504L45.8628 55.9595L43.4948 52.3115L42.656 52.856L41.8172 53.4005L44.1852 57.0485L45.024 56.504ZM42.656 52.856L43.1368 53.7328C47.2196 51.4939 50.658 48.5879 53.3724 45.0127L52.576 44.408L51.7796 43.8033C49.2461 47.1401 46.0284 49.8661 42.1752 51.9792L42.656 52.856ZM52.576 44.408V43.408H44.832V44.408V45.408H52.576V44.408ZM44.832 44.408H45.832V40.504H44.832H43.832V44.408H44.832ZM44.832 40.504V41.504H55.136V40.504V39.504H44.832V40.504ZM55.136 40.504L56.0165 40.9781C56.9265 39.288 57.7745 37.5275 58.4941 35.7613L57.568 35.384L56.6419 35.0067C55.9535 36.6965 55.1375 38.392 54.2555 40.0299L55.136 40.504ZM57.568 35.384V34.384H46.688V35.384V36.384H57.568V35.384ZM46.688 35.384H47.688V31.544H46.688H45.688V35.384H46.688ZM52.832 50.488V51.488H70.88V50.488V49.488H52.832V50.488ZM70.88 50.488L71.5401 49.7368C69.5079 47.9509 67.912 45.9853 66.6859 43.901L65.824 44.408L64.9621 44.915C66.296 47.1827 68.0281 49.3131 70.2199 51.2392L70.88 50.488ZM65.824 44.408V43.408H57.76V44.408V45.408H65.824V44.408ZM57.76 44.408L56.9243 43.8588C55.4882 46.0442 53.8669 48.0389 52.1249 49.7809L52.832 50.488L53.5391 51.1951C55.3811 49.3531 57.0878 47.2518 58.5957 44.9572L57.76 44.408ZM30.56 44.856H29.56V55.544H30.56H31.56V44.856H30.56ZM30.56 55.544V56.544H38.112V55.544V54.544H30.56V55.544ZM38.112 55.544H39.112V44.856H38.112H37.112V55.544H38.112ZM38.112 44.856V43.856H30.56V44.856V45.856H38.112V44.856ZM38.112 40.568H39.112V29.56H38.112H37.112V40.568H38.112ZM38.112 29.56V28.56H30.56V29.56V30.56H38.112V29.56ZM30.56 29.56H29.56V40.568H30.56H31.56V29.56H30.56ZM30.56 40.568V41.568H38.112V40.568V39.568H30.56V40.568ZM30.496 59.896L29.497 59.8516C29.1161 68.4205 27.785 75.4018 25.5385 80.8934L26.464 81.272L27.3895 81.6506C29.751 75.8782 31.1079 68.6515 31.495 59.9404L30.496 59.896ZM26.464 81.272L27.1429 80.5377L23.7509 77.4017L23.072 78.136L22.3931 78.8703L25.7851 82.0063L26.464 81.272ZM23.072 78.136L24.0142 78.471C26.1134 72.5671 27.1435 65.0848 27.208 56.1272L26.208 56.12L25.208 56.1128C25.1445 64.9472 24.1266 72.1849 22.1298 77.801L23.072 78.136ZM26.208 56.12H27.208V25.208H26.208H25.208V56.12H26.208ZM26.208 25.208V26.208H42.528V25.208V24.208H26.208V25.208ZM42.528 25.208H41.528V75.96H42.528H43.528V25.208H42.528ZM42.528 75.96H41.528C41.528 77.4971 41.1377 78.4778 40.5282 79.0816C39.917 79.6871 38.9178 80.08 37.344 80.08V81.08V82.08C39.2262 82.08 40.819 81.6089 41.9358 80.5024C43.0543 79.3943 43.528 77.8149 43.528 75.96H42.528ZM37.344 81.08V80.08H32.864V81.08V82.08H37.344V81.08ZM32.864 81.08L33.8324 80.8306L32.7444 76.6066L31.776 76.856L30.8076 77.1054L31.8956 81.3294L32.864 81.08ZM31.776 76.856L31.693 77.8525C33.2497 77.9823 34.6221 78.048 35.936 78.048V77.048V76.048C34.6899 76.048 33.3743 75.9857 31.859 75.8595L31.776 76.856ZM35.936 77.048V78.048C36.8634 78.048 37.7189 77.7432 38.3191 77.0256C38.8939 76.3383 39.112 75.4166 39.112 74.424H38.112H37.112C37.112 75.1594 36.9461 75.5497 36.7849 75.7424C36.6491 75.9048 36.4166 76.048 35.936 76.048V77.048ZM38.112 74.424H39.112V59.896H38.112H37.112V74.424H38.112ZM38.112 59.896V58.896H30.496V59.896V60.896H38.112V59.896ZM45.344 69.368V70.368H68.256V69.368V68.368H45.344V69.368ZM68.256 69.368H67.256V73.336H68.256H69.256V69.368H68.256ZM68.256 73.336V72.336H45.344V73.336V74.336H68.256V73.336ZM45.344 73.336H46.344V69.368H45.344H44.344V73.336H45.344Z" fill="black" fill-opacity="0.2" mask="url(#path-2-outside-1_228_6)"/>
</g>
<defs>
<filter id="filter0_di_228_6" x="9.90881" y="13.4135" width="85.3612" height="85.5714" filterUnits="userSpaceOnUse" color-interpolation-filters="sRGB">
<feFlood flood-opacity="0" result="BackgroundImageFix"/>
<feColorMatrix in="SourceAlpha" type="matrix" values="0 0 0 0 0 0 0 0 0 0 0 0 0 0 0 0 0 0 127 0" result="hardAlpha"/>
<feOffset dy="4"/>
<feGaussianBlur stdDeviation="6"/>
<feComposite in2="hardAlpha" operator="out"/>
<feColorMatrix type="matrix" values="0 0 0 0 0 0 0 0 0 0 0 0 0 0 0 0 0 0 0.3 0"/>
<feBlend mode="normal" in2="BackgroundImageFix" result="effect1_dropShadow_228_6"/>
<feBlend mode="normal" in="SourceGraphic" in2="effect1_dropShadow_228_6" result="shape"/>
<feColorMatrix in="SourceAlpha" type="matrix" values="0 0 0 0 0 0 0 0 0 0 0 0 0 0 0 0 0 0 127 0" result="hardAlpha"/>
<feOffset dy="2"/>
<feGaussianBlur stdDeviation="2"/>
<feComposite in2="hardAlpha" operator="arithmetic" k2="-1" k3="1"/>
<feColorMatrix type="matrix" values="0 0 0 0 1 0 0 0 0 1 0 0 0 0 1 0 0 0 0.1 0"/>
<feBlend mode="normal" in2="shape" result="effect2_innerShadow_228_6"/>
</filter>
<linearGradient id="paint0_linear_228_6" x1="88.166" y1="89.3633" x2="15.834" y2="14.6367" gradientUnits="userSpaceOnUse">
<stop stop-color="#1E40AF"/>
<stop offset="0.513402" stop-color="#3B82F6"/>
<stop offset="1" stop-color="#60A5FA"/>
</linearGradient>
<linearGradient id="paint1_linear_228_6" x1="90.4989" y1="51.6592" x2="13.4999" y2="52.1581" gradientUnits="userSpaceOnUse">
<stop stop-color="white"/>
<stop offset="0.5" stop-color="#E0F2FE"/>
</linearGradient>
</defs>
</svg>
